<?xml version="1.0" encoding="utf-8"?>
<svg xmlns="http://www.w3.org/2000/svg" xmlns:svg="http://www.w3.org/2000/svg" version="1.1" viewBox="0 0 1400 590">
	<title>The titlepage for the Standard Ebooks edition of This Vancouver: Stories of Community, by Vancouver Public Library</title>
	<g aria-label="THIS VANCOUVER: STORIES OF COMMUNITY">
		<path d="m -450.2566,68.245613 h 18.33918 V 130 h 17.59065 V 68.245613 h 18.33918 V 52.807016 h -54.26901 z"/>
		<path d="m -367.06215,99.029239 h 24.88889 V 130 h 17.59064 V 52.807016 h -17.59064 v 30.783626 h -24.88889 V 52.807016 H -384.6528 V 130 h 17.59065 z"/>
		<path d="m -290.79022,52.807016 h -17.59064 V 130 h 17.59064 z"/>
		<path d="m -247.88963,51.403507 c -12.44445,0 -25.16959,9.169591 -25.16959,23.578948 0,8.046784 5.4269,15.251462 14.69005,19.836258 9.16959,4.584795 17.40351,7.111107 17.40351,12.725147 0,7.20468 -7.29824,7.57895 -11.1345,7.57895 -8.60819,0 -18.90059,-8.70176 -18.90059,-8.70176 l -8.79532,14.78363 c 0,0 10.94737,10.19883 29.00585,10.19883 15.06433,0 29.09942,-6.45614 29.09942,-24.88889 0,-10.105264 -9.4503,-17.40351 -18.05848,-21.052632 -8.79532,-3.742691 -16.09357,-6.83041 -16.09357,-11.134504 0,-4.210526 3.18129,-6.923976 9.16959,-6.923976 7.95322,0 15.62573,5.333333 15.62573,5.333333 l 7.11111,-14.035088 c 0,0 -9.91813,-7.298246 -23.95321,-7.298246 z"/>
		<path d="m -161.78438,130 h 13.84795 l 32.37427,-77.192984 h -19.83625 l -19.46199,50.713454 -19.46199,-50.713454 h -19.83626 z"/>
		<path d="M -77.027059,52.807016 H -93.307761 L -124.46566,130 h 18.90059 l 5.707602,-15.4386 h 29.380117 L -64.769749,130 h 18.900586 z m 0.561404,46.31579 h -17.403509 l 8.608187,-22.45614 h 0.187135 z"/>
		<path d="m -20.358929,82.093566 h 0.187135 L 10.518265,130 H 28.108908 V 52.807016 H 10.518265 V 100.71345 H 10.33113 L -20.358929,52.807016 H -37.949572 V 130 h 17.590643 z"/>
		<path d="m 82.505114,114.09357 c -17.684211,0 -25.450293,-12.35088 -25.450293,-22.736846 0,-10.292397 7.766082,-22.643275 25.450293,-22.643275 8.982456,0 15.157895,4.77193 15.157895,4.77193 l 7.485381,-14.97076 c 0,0 -8.608188,-7.111112 -25.356726,-7.111112 -21.894738,0 -41.824562,17.964913 -41.824562,40.140352 0,22.081871 20.023392,39.859651 41.824562,39.859651 16.748538,0 25.356726,-7.11111 25.356726,-7.11111 l -7.485381,-14.97076 c 0,0 -6.175439,4.77193 -15.157895,4.77193 z"/>
		<path d="m 113.50806,91.356724 c 0,22.549706 16.09356,40.046786 38.92397,40.046786 22.17544,0 38.83041,-17.49708 38.83041,-40.046786 0,-22.549708 -17.40351,-39.953217 -38.83041,-39.953217 -21.23976,0 -38.92397,17.403509 -38.92397,39.953217 z m 18.99415,0 c 0,-11.508772 6.36257,-23.017544 19.92982,-23.017544 13.66082,0 19.83626,11.508772 19.83626,23.017544 0,11.508776 -5.80117,23.017546 -19.83626,23.017546 -14.40935,0 -19.92982,-11.50877 -19.92982,-23.017546 z"/>
		<path d="m 263.34576,52.807016 h -17.59064 v 44.63158 c 0,12.912284 -3.92983,16.654974 -12.53802,16.654974 -8.60818,0 -12.53801,-3.74269 -12.53801,-16.654974 v -44.63158 h -17.59064 v 49.777774 c 0,19.08772 10.47953,28.81872 30.12865,28.81872 19.64913,0 30.12866,-9.731 30.12866,-28.81872 z"/>
		<path d="m 294.75072,130 h 13.84795 L 340.97294,52.807016 H 321.13668 L 301.67469,103.52047 282.2127,52.807016 h -19.83625 z"/>
		<path d="M 393.05627,52.807016 H 348.89253 V 130 h 44.16374 v -15.4386 h -26.5731 V 99.029239 h 25.4503 V 83.590642 h -25.4503 V 68.245613 h 26.5731 z"/>
		<path d="M 408.16884,52.807016 V 130 h 17.59064 V 99.497075 L 449.33843,130 H 471.701 L 445.1279,98.093567 c 9.45029,-2.994152 15.81287,-10.760234 15.81287,-22.362574 0,-15.157895 -10.8538,-22.923977 -25.16959,-22.923977 z m 17.59064,34.245615 V 66.842104 h 2.05848 c 6.64327,0 14.59649,0.467836 14.59649,10.105263 0,9.637428 -7.95322,10.105264 -14.59649,10.105264 z"/>
		<path d="m 490.90423,78.163742 c -5.89474,0 -10.66667,4.77193 -10.66667,10.760234 0,5.894737 4.77193,10.666667 10.66667,10.666667 5.9883,0 10.76023,-4.77193 10.76023,-10.666667 0,-5.988304 -4.77193,-10.760234 -10.76023,-10.760234 z m 0,31.812868 c -5.89474,0 -10.66667,4.77193 -10.66667,10.76023 0,5.89474 4.77193,10.66667 10.66667,10.66667 5.9883,0 10.76023,-4.77193 10.76023,-10.66667 0,-5.9883 -4.77193,-10.76023 -10.76023,-10.76023 z"/>
		<path d="m 575.15131,51.403507 c -12.44445,0 -25.1696,9.169591 -25.1696,23.578948 0,8.046784 5.42691,15.251462 14.69006,19.836258 9.16959,4.584795 17.40351,7.111107 17.40351,12.725147 0,7.20468 -7.29824,7.57895 -11.1345,7.57895 -8.60819,0 -18.90059,-8.70176 -18.90059,-8.70176 l -8.79532,14.78363 c 0,0 10.94737,10.19883 29.00585,10.19883 15.06433,0 29.09942,-6.45614 29.09942,-24.88889 0,-10.105264 -9.4503,-17.40351 -18.05848,-21.052632 -8.79532,-3.742691 -16.09357,-6.83041 -16.09357,-11.134504 0,-4.210526 3.18129,-6.923976 9.16959,-6.923976 7.95322,0 15.62573,5.333333 15.62573,5.333333 l 7.11111,-14.035088 c 0,0 -9.91813,-7.298246 -23.95321,-7.298246 z"/>
		<path d="m 605.13818,68.245613 h 18.33918 V 130 H 641.068 V 68.245613 h 18.33918 V 52.807016 h -54.269 z"/>
		<path d="m 664.35602,91.356724 c 0,22.549706 16.09357,40.046786 38.92397,40.046786 22.17544,0 38.83041,-17.49708 38.83041,-40.046786 0,-22.549708 -17.4035,-39.953217 -38.83041,-39.953217 -21.23976,0 -38.92397,17.403509 -38.92397,39.953217 z m 18.99415,0 c 0,-11.508772 6.36257,-23.017544 19.92982,-23.017544 13.66082,0 19.83626,11.508772 19.83626,23.017544 0,11.508776 -5.80117,23.017546 -19.83626,23.017546 -14.40935,0 -19.92982,-11.50877 -19.92982,-23.017546 z"/>
		<path d="M 754.87208,52.807016 V 130 h 17.59065 V 99.497075 L 796.04167,130 h 22.36258 l -26.5731,-31.906433 c 9.45029,-2.994152 15.81286,-10.760234 15.81286,-22.362574 0,-15.157895 -10.8538,-22.923977 -25.16959,-22.923977 z m 17.59065,34.245615 V 66.842104 h 2.05848 c 6.64327,0 14.59649,0.467836 14.59649,10.105263 0,9.637428 -7.95322,10.105264 -14.59649,10.105264 z"/>
		<path d="M 844.53145,52.807016 H 826.94081 V 130 h 17.59064 z"/>
		<path d="M 904.97882,52.807016 H 860.81508 V 130 h 44.16374 v -15.4386 h -26.5731 V 99.029239 h 25.45029 V 83.590642 H 878.40572 V 68.245613 h 26.5731 z"/>
		<path d="m 948.53589,51.403507 c -12.44445,0 -25.16959,9.169591 -25.16959,23.578948 0,8.046784 5.4269,15.251462 14.69006,19.836258 9.16959,4.584795 17.40351,7.111107 17.40351,12.725147 0,7.20468 -7.29825,7.57895 -11.13451,7.57895 -8.60819,0 -18.90058,-8.70176 -18.90058,-8.70176 l -8.79532,14.78363 c 0,0 10.94736,10.19883 29.00584,10.19883 15.06433,0 29.09942,-6.45614 29.09942,-24.88889 0,-10.105264 -9.45029,-17.40351 -18.05848,-21.052632 -8.79532,-3.742691 -16.09357,-6.83041 -16.09357,-11.134504 0,-4.210526 3.18129,-6.923976 9.16959,-6.923976 7.95322,0 15.62573,5.333333 15.62573,5.333333 l 7.11112,-14.035088 c 0,0 -9.91813,-7.298246 -23.95322,-7.298246 z"/>
		<path d="m 1015.0797,91.356724 c 0,22.549706 16.0935,40.046786 38.9239,40.046786 22.1755,0 38.8304,-17.49708 38.8304,-40.046786 0,-22.549708 -17.4035,-39.953217 -38.8304,-39.953217 -21.2397,0 -38.9239,17.403509 -38.9239,39.953217 z m 18.9941,0 c 0,-11.508772 6.3626,-23.017544 19.9298,-23.017544 13.6608,0 19.8363,11.508772 19.8363,23.017544 0,11.508776 -5.8012,23.017546 -19.8363,23.017546 -14.4093,0 -19.9298,-11.50877 -19.9298,-23.017546 z"/>
		<path d="m 1150.2273,52.807016 h -44.6316 V 130 h 17.5907 V 99.029239 h 24.9824 V 83.590642 h -24.9824 V 68.245613 h 27.0409 z"/>
		<path d="m 1232.3297,114.09357 c -17.6842,0 -25.4503,-12.35088 -25.4503,-22.736846 0,-10.292397 7.7661,-22.643275 25.4503,-22.643275 8.9825,0 15.1579,4.77193 15.1579,4.77193 l 7.4854,-14.97076 c 0,0 -8.6082,-7.111112 -25.3568,-7.111112 -21.8947,0 -41.8245,17.964913 -41.8245,40.140352 0,22.081871 20.0234,39.859651 41.8245,39.859651 16.7486,0 25.3568,-7.11111 25.3568,-7.11111 l -7.4854,-14.97076 c 0,0 -6.1754,4.77193 -15.1579,4.77193 z"/>
		<path d="m 1263.3326,91.356724 c 0,22.549706 16.0935,40.046786 38.924,40.046786 22.1754,0 38.8304,-17.49708 38.8304,-40.046786 0,-22.549708 -17.4035,-39.953217 -38.8304,-39.953217 -21.2398,0 -38.924,17.403509 -38.924,39.953217 z m 18.9941,0 c 0,-11.508772 6.3626,-23.017544 19.9299,-23.017544 13.6608,0 19.8362,11.508772 19.8362,23.017544 0,11.508776 -5.8012,23.017546 -19.8362,23.017546 -14.4094,0 -19.9299,-11.50877 -19.9299,-23.017546 z"/>
		<path d="m 1417.6615,130 h 17.5907 l -6.924,-77.192984 h -18.7135 l -17.1228,44.538013 -17.1228,-44.538013 h -18.7134 L 1349.7317,130 h 17.5906 l 3.6492,-45.754387 h 0.4678 l 15.8129,45.286547 h 10.4795 l 15.8129,-45.286547 h 0.4678 z"/>
		<path d="m 1511.1118,130 h 17.5907 l -6.924,-77.192984 h -18.7135 l -17.1228,44.538013 -17.1228,-44.538013 H 1450.106 L 1443.182,130 h 17.5906 l 3.6492,-45.754387 h 0.4678 l 15.8129,45.286547 h 10.4795 l 15.8129,-45.286547 h 0.4678 z"/>
		<path d="m 1600.0709,52.807016 h -17.5906 v 44.63158 c 0,12.912284 -3.9298,16.654974 -12.538,16.654974 -8.6082,0 -12.538,-3.74269 -12.538,-16.654974 v -44.63158 h -17.5907 v 49.777774 c 0,19.08772 10.4795,28.81872 30.1287,28.81872 19.6491,0 30.1286,-9.731 30.1286,-28.81872 z"/>
		<path d="m 1632.9671,82.093566 h 0.1872 L 1663.8443,130 h 17.5907 V 52.807016 h -17.5907 v 47.906434 h -0.1871 l -30.6901,-47.906434 h -17.5906 V 130 h 17.5906 z"/>
		<path d="m 1715.2699,52.807016 h -17.5907 V 130 h 17.5907 z"/>
		<path d="m 1722.1191,68.245613 h 18.3392 V 130 h 17.5907 V 68.245613 h 18.3391 V 52.807016 h -54.269 z"/>
		<path d="m 1779.3019,52.807016 28.4444,42.5731 V 130 h 17.5906 V 95.380116 l 28.4445,-42.5731 h -21.1462 l -16.0936,24.701755 -16.0935,-24.701755 z"/>
	</g>
	<g aria-label="VANCOUVER PBLIC LIBRARY">
		<path d="m 157.99562,290 h 10.38596 l 24.28071,-57.89474 h -14.8772 l -14.59649,38.03509 -14.59649,-38.03509 h -14.87719 z"/>
		<path d="M 222.8136,232.10526 H 210.60308 L 187.23465,290 h 14.17544 l 4.2807,-11.57895 h 22.03509 L 232.00658,290 h 14.17544 z m 0.42105,34.73685 H 210.18202 L 216.63816,250 h 0.14035 z"/>
		<path d="m 266.5647,254.07018 h 0.14035 L 289.72259,290 h 13.19299 v -57.89474 h -13.19299 v 35.92983 h -0.14035 L 266.5647,232.10526 H 253.37172 V 290 h 13.19298 z"/>
		<path d="m 344.96272,278.07018 c -13.26315,0 -19.08772,-9.26316 -19.08772,-17.05264 0,-7.71929 5.82457,-16.98245 19.08772,-16.98245 6.73685,0 11.36842,3.57895 11.36842,3.57895 l 5.61404,-11.22807 c 0,0 -6.45614,-5.33334 -19.01754,-5.33334 -16.42106,0 -31.36843,13.47369 -31.36843,30.10527 0,16.5614 15.01755,29.89473 31.36843,29.89473 12.5614,0 19.01754,-5.33333 19.01754,-5.33333 l -5.61404,-11.22807 c 0,0 -4.63157,3.57895 -11.36842,3.57895 z"/>
		<path d="m 369.46492,261.01754 c 0,16.91228 12.07017,30.03509 29.19298,30.03509 16.63158,0 29.1228,-13.12281 29.1228,-30.03509 0,-16.91228 -13.05263,-29.96491 -29.1228,-29.96491 -15.92983,0 -29.19298,13.05263 -29.19298,29.96491 z m 14.24561,0 c 0,-8.63157 4.77193,-17.26315 14.94737,-17.26315 10.24561,0 14.87719,8.63158 14.87719,17.26315 0,8.63158 -4.35088,17.26316 -14.87719,17.26316 -10.80702,0 -14.94737,-8.63158 -14.94737,-17.26316 z"/>
		<path d="m 483.09319,232.10526 h -13.19298 v 33.47369 c 0,9.68421 -2.94737,12.49123 -9.40351,12.49123 -6.45614,0 -9.40351,-2.80702 -9.40351,-12.49123 v -33.47369 h -13.19298 v 37.33334 c 0,14.31579 7.85965,21.61403 22.59649,21.61403 14.73684,0 22.59649,-7.29824 22.59649,-21.61403 z"/>
		<path d="m 507.89692,290 h 10.38597 l 24.2807,-57.89474 H 527.6864 l -14.59649,38.03509 -14.59649,-38.03509 h -14.8772 z"/>
		<path d="M 582.87611,232.10526 H 549.7533 V 290 h 33.12281 V 278.42105 H 562.94628 V 266.77193 H 582.034 v -11.57895 h -19.08772 v -11.50877 h 19.92983 z"/>
		<path d="M 595.46055,232.10526 V 290 h 13.19298 V 267.12281 L 626.33774,290 h 16.77193 l -19.92983,-23.92982 c 7.08772,-2.24562 11.85965,-8.07018 11.85965,-16.77193 0,-11.36842 -8.14035,-17.19299 -18.87719,-17.19299 z m 13.19298,25.68421 v -15.15789 h 1.54386 c 4.98245,0 10.94737,0.35088 10.94737,7.57895 0,7.22807 -5.96492,7.57894 -10.94737,7.57894 z"/>
		<path d="M 674.95066,232.10526 V 290 h 13.19298 v -21.47368 h 7.92983 c 11.29824,0 19.78947,-6.66667 19.78947,-18.5965 0,-11.99999 -8.49123,-17.82456 -19.78947,-17.82456 z M 688.14364,258 v -15.36842 h 3.7193 c 5.19298,0 10.10526,1.75439 10.10526,7.7193 0,5.89473 -4.91228,7.64912 -10.10526,7.64912 z"/>
		<path d="M 726.68857,232.10526 V 290 h 21.96492 c 12,0 18.94736,-6.59649 18.94736,-16.14035 0,-9.33333 -5.1228,-13.33333 -12.35087,-14.59649 4.91228,-2.52632 7.22807,-7.08772 7.22807,-12.42105 0,-11.01755 -7.85965,-14.73685 -17.82456,-14.73685 z m 13.19299,22.66667 V 242.2807 h 1.05263 c 5.75438,0 8.77193,1.75439 8.77193,5.89474 0,4.8421 -3.08772,6.59649 -8.77193,6.59649 z m 0,25.05263 v -13.68421 h 4.14035 c 6.24561,0 9.68421,1.89474 9.68421,7.22807 0,4.5614 -3.4386,6.45614 -9.68421,6.45614 z"/>
		<path d="M 791.61953,232.10526 H 778.42655 V 290 h 33.12281 v -11.57895 h -19.92983 z"/>
		<path d="M 836.23025,232.10526 H 823.03727 V 290 h 13.19298 z"/>
		<path d="m 878.30699,278.07018 c -13.26316,0 -19.08772,-9.26316 -19.08772,-17.05264 0,-7.71929 5.82456,-16.98245 19.08772,-16.98245 6.73684,0 11.36842,3.57895 11.36842,3.57895 l 5.61404,-11.22807 c 0,0 -6.45614,-5.33334 -19.01755,-5.33334 -16.42105,0 -31.36842,13.47369 -31.36842,30.10527 0,16.5614 15.01755,29.89473 31.36842,29.89473 12.56141,0 19.01755,-5.33333 19.01755,-5.33333 l -5.61404,-11.22807 c 0,0 -4.63158,3.57895 -11.36842,3.57895 z"/>
		<path d="M 942.78726,232.10526 H 929.59427 V 290 h 33.12281 v -11.57895 h -19.92982 z"/>
		<path d="M 987.39804,232.10526 H 974.20505 V 290 h 13.19299 z"/>
		<path d="M 1000.8608,232.10526 V 290 h 21.9649 c 12,0 18.9473,-6.59649 18.9473,-16.14035 0,-9.33333 -5.1228,-13.33333 -12.3508,-14.59649 4.9122,-2.52632 7.228,-7.08772 7.228,-12.42105 0,-11.01755 -7.8596,-14.73685 -17.8245,-14.73685 z m 13.1929,22.66667 V 242.2807 h 1.0527 c 5.7544,0 8.7719,1.75439 8.7719,5.89474 0,4.8421 -3.0877,6.59649 -8.7719,6.59649 z m 0,25.05263 v -13.68421 h 4.1404 c 6.2456,0 9.6842,1.89474 9.6842,7.22807 0,4.5614 -3.4386,6.45614 -9.6842,6.45614 z"/>
		<path d="M 1052.5987,232.10526 V 290 h 13.193 V 267.12281 L 1083.4759,290 h 16.7719 l -19.9298,-23.92982 c 7.0877,-2.24562 11.8596,-8.07018 11.8596,-16.77193 0,-11.36842 -8.1403,-17.19299 -18.8772,-17.19299 z m 13.193,25.68421 v -15.15789 h 1.5438 c 4.9825,0 10.9474,0.35088 10.9474,7.57895 0,7.22807 -5.9649,7.57894 -10.9474,7.57894 z"/>
		<path d="m 1137.3038,232.10526 h -12.2106 L 1101.7248,290 h 14.1754 l 4.2807,-11.57895 h 22.0351 L 1146.4967,290 h 14.1755 z m 0.421,34.73685 h -13.0526 L 1131.1283,250 h 0.1404 z"/>
		<path d="M 1167.8618,232.10526 V 290 h 13.193 V 267.12281 L 1198.739,290 h 16.7719 l -19.9298,-23.92982 c 7.0877,-2.24562 11.8596,-8.07018 11.8596,-16.77193 0,-11.36842 -8.1403,-17.19299 -18.8772,-17.19299 z m 13.193,25.68421 v -15.15789 h 1.5438 c 4.9825,0 10.9474,0.35088 10.9474,7.57895 0,7.22807 -5.9649,7.57894 -10.9474,7.57894 z"/>
		<path d="m 1210.5427,232.10526 21.3333,31.92983 V 290 h 13.193 v -25.96491 l 21.3334,-31.92983 h -15.8597 l -12.0702,18.52632 -12.0701,-18.52632 z"/>
	</g>
</svg>
