<?xml version="1.0" encoding="utf-8"?>
<svg xmlns="http://www.w3.org/2000/svg" xmlns:svg="http://www.w3.org/2000/svg" version="1.1" viewBox="0 0 1400 620">
	<title>The titlepage for the Standard Ebooks edition of This Vancouver: Stories of Community, by Vancouver Public Library</title>
	<g aria-label="THIS VANCOUVER:">
		<path d="m 221.57821,68.245613 h 18.33918 V 130 h 17.59064 V 68.245613 h 18.33919 V 52.807016 h -54.26901 z"/>
		<path d="m 304.77265,99.029239 h 24.88889 V 130 h 17.59065 V 52.807016 H 329.66154 V 83.590642 H 304.77265 V 52.807016 H 287.18201 V 130 h 17.59064 z"/>
		<path d="M 381.04459,52.807016 H 363.45394 V 130 h 17.59065 z"/>
		<path d="m 423.94517,51.403507 c -12.44444,0 -25.16959,9.169591 -25.16959,23.578948 0,8.046784 5.4269,15.251462 14.69006,19.836258 9.16959,4.584795 17.40351,7.111107 17.40351,12.725147 0,7.20468 -7.29825,7.57895 -11.1345,7.57895 -8.60819,0 -18.90059,-8.70176 -18.90059,-8.70176 l -8.79532,14.78363 c 0,0 10.94737,10.19883 29.00585,10.19883 15.06433,0 29.09941,-6.45614 29.09941,-24.88889 0,-10.105264 -9.45029,-17.40351 -18.05848,-21.052632 -8.79532,-3.742691 -16.09356,-6.83041 -16.09356,-11.134504 0,-4.210526 3.18128,-6.923976 9.16959,-6.923976 7.95321,0 15.62573,5.333333 15.62573,5.333333 l 7.11111,-14.035088 c 0,0 -9.91813,-7.298246 -23.95322,-7.298246 z"/>
		<path d="m 510.05043,130 h 13.84795 L 556.27265,52.807016 H 536.43639 L 516.9744,103.52047 497.51241,52.807016 h -19.83625 z"/>
		<path d="m 594.80775,52.807016 h -16.2807 L 547.36915,130 h 18.90059 l 5.7076,-15.4386 h 29.38012 L 607.06506,130 h 18.90058 z m 0.5614,46.31579 h -17.40351 l 8.60819,-22.45614 h 0.18713 z"/>
		<path d="m 651.47588,82.093566 h 0.18713 L 682.35307,130 h 17.59064 V 52.807016 h -17.59064 v 47.906434 h -0.18713 L 651.47588,52.807016 H 633.88523 V 130 h 17.59065 z"/>
		<path d="m 754.33992,114.09357 c -17.68421,0 -25.45029,-12.35088 -25.45029,-22.736846 0,-10.292397 7.76608,-22.643275 25.45029,-22.643275 8.98246,0 15.1579,4.77193 15.1579,4.77193 l 7.48538,-14.97076 c 0,0 -8.60819,-7.111112 -25.35673,-7.111112 -21.89474,0 -41.82456,17.964913 -41.82456,40.140352 0,22.081871 20.02339,39.859651 41.82456,39.859651 16.74854,0 25.35673,-7.11111 25.35673,-7.11111 l -7.48538,-14.97076 c 0,0 -6.17544,4.77193 -15.1579,4.77193 z"/>
		<path d="m 785.34286,91.356724 c 0,22.549706 16.09357,40.046786 38.92398,40.046786 22.17544,0 38.83041,-17.49708 38.83041,-40.046786 0,-22.549708 -17.40351,-39.953217 -38.83041,-39.953217 -21.23977,0 -38.92398,17.403509 -38.92398,39.953217 z m 18.99415,0 c 0,-11.508772 6.36258,-23.017544 19.92983,-23.017544 13.66082,0 19.83626,11.508772 19.83626,23.017544 0,11.508776 -5.80117,23.017546 -19.83626,23.017546 -14.40936,0 -19.92983,-11.50877 -19.92983,-23.017546 z"/>
		<path d="m 935.18057,52.807016 h -17.59065 v 44.63158 c 0,12.912284 -3.92982,16.654974 -12.53801,16.654974 -8.60819,0 -12.53801,-3.74269 -12.53801,-16.654974 v -44.63158 h -17.59064 v 49.777774 c 0,19.08772 10.47953,28.81872 30.12865,28.81872 19.64912,0 30.12866,-9.731 30.12866,-28.81872 z"/>
		<path d="m 966.58552,130 h 13.84796 L 1012.8077,52.807016 H 992.97149 L 973.5095,103.52047 954.04751,52.807016 h -19.83626 z"/>
		<path d="m 1064.8911,52.807016 h -44.1638 V 130 h 44.1638 V 114.5614 H 1038.318 V 99.029239 h 25.4503 V 83.590642 H 1038.318 V 68.245613 h 26.5731 z"/>
		<path d="M 1080.0036,52.807016 V 130 h 17.5907 V 99.497075 L 1121.1732,130 h 22.3626 l -26.5731,-31.906433 c 9.4503,-2.994152 15.8129,-10.760234 15.8129,-22.362574 0,-15.157895 -10.8538,-22.923977 -25.1696,-22.923977 z m 17.5907,34.245615 V 66.842104 h 2.0585 c 6.6432,0 14.5965,0.467836 14.5965,10.105263 0,9.637428 -7.9533,10.105264 -14.5965,10.105264 z"/>
		<path d="m 1162.739,78.163742 c -5.8947,0 -10.6666,4.77193 -10.6666,10.760234 0,5.894737 4.7719,10.666667 10.6666,10.666667 5.9883,0 10.7603,-4.77193 10.7603,-10.666667 0,-5.988304 -4.772,-10.760234 -10.7603,-10.760234 z m 0,31.812868 c -5.8947,0 -10.6666,4.77193 -10.6666,10.76023 0,5.89474 4.7719,10.66667 10.6666,10.66667 5.9883,0 10.7603,-4.77193 10.7603,-10.66667 0,-5.9883 -4.772,-10.76023 -10.7603,-10.76023 z"/>
	</g>
	<g aria-label="STORIES">
		<path d="m 515.93348,151.40351 c -12.44445,0 -25.16959,9.16959 -25.16959,23.57895 0,8.04678 5.4269,15.25146 14.69005,19.83625 9.1696,4.5848 17.40351,7.11111 17.40351,12.72515 0,7.20468 -7.29824,7.57895 -11.1345,7.57895 -8.60819,0 -18.90058,-8.70176 -18.90058,-8.70176 l -8.79533,14.78363 c 0,0 10.94737,10.19883 29.00585,10.19883 15.06433,0 29.09942,-6.45614 29.09942,-24.88889 0,-10.10526 -9.4503,-17.40351 -18.05848,-21.05263 -8.79532,-3.74269 -16.09357,-6.83041 -16.09357,-11.13451 0,-4.21052 3.18129,-6.92397 9.16959,-6.92397 7.95322,0 15.62573,5.33333 15.62573,5.33333 l 7.11111,-14.03509 c 0,0 -9.91813,-7.29824 -23.95321,-7.29824 z"/>
		<path d="M 545.92032,168.24561 H 564.2595 V 230 h 17.59064 v -61.75439 h 18.33918 v -15.43859 h -54.269 z"/>
		<path d="m 605.13816,191.35672 c 0,22.54971 16.09357,40.04679 38.92398,40.04679 22.17543,0 38.83041,-17.49708 38.83041,-40.04679 0,-22.5497 -17.40351,-39.95321 -38.83041,-39.95321 -21.23977,0 -38.92398,17.40351 -38.92398,39.95321 z m 18.99415,0 c 0,-11.50877 6.36257,-23.01754 19.92983,-23.01754 13.66081,0 19.83625,11.50877 19.83625,23.01754 0,11.50878 -5.80117,23.01755 -19.83625,23.01755 -14.40936,0 -19.92983,-11.50877 -19.92983,-23.01755 z"/>
		<path d="M 695.65424,152.80702 V 230 h 17.59064 V 199.49708 L 736.82383,230 h 22.36257 l -26.5731,-31.90643 c 9.4503,-2.99416 15.81287,-10.76024 15.81287,-22.36258 0,-15.15789 -10.8538,-22.92397 -25.16959,-22.92397 z m 17.59064,34.24561 V 166.8421 h 2.05848 c 6.64328,0 14.59649,0.46784 14.59649,10.10527 0,9.63742 -7.95321,10.10526 -14.59649,10.10526 z"/>
		<path d="M 785.31359,152.80702 H 767.72295 V 230 h 17.59064 z"/>
		<path d="M 845.76096,152.80702 H 801.59722 V 230 h 44.16374 v -15.4386 h -26.5731 v -15.53216 h 25.45029 v -15.4386 h -25.45029 v -15.34503 h 26.5731 z"/>
		<path d="m 889.318,151.40351 c -12.44445,0 -25.16959,9.16959 -25.16959,23.57895 0,8.04678 5.4269,15.25146 14.69006,19.83625 9.16959,4.5848 17.4035,7.11111 17.4035,12.72515 0,7.20468 -7.29824,7.57895 -11.1345,7.57895 -8.60819,0 -18.90058,-8.70176 -18.90058,-8.70176 l -8.79533,14.78363 c 0,0 10.94737,10.19883 29.00585,10.19883 15.06433,0 29.09942,-6.45614 29.09942,-24.88889 0,-10.10526 -9.45029,-17.40351 -18.05848,-21.05263 -8.79532,-3.74269 -16.09357,-6.83041 -16.09357,-11.13451 0,-4.21052 3.18129,-6.92397 9.16959,-6.92397 7.95322,0 15.62573,5.33333 15.62573,5.33333 l 7.11111,-14.03509 c 0,0 -9.91812,-7.29824 -23.95321,-7.29824 z"/>
	</g>
	<g aria-label="OF COMMUNITY">
		<path d="m 283.1133,291.35672 c 0,22.54971 16.09356,40.04679 38.92397,40.04679 22.17544,0 38.83041,-17.49708 38.83041,-40.04679 0,-22.5497 -17.4035,-39.95321 -38.83041,-39.95321 -21.23976,0 -38.92397,17.40351 -38.92397,39.95321 z m 18.99415,0 c 0,-11.50877 6.36257,-23.01754 19.92982,-23.01754 13.66082,0 19.83626,11.50877 19.83626,23.01754 0,11.50878 -5.80117,23.01755 -19.83626,23.01755 -14.40935,0 -19.92982,-11.50877 -19.92982,-23.01755 z"/>
		<path d="M 418.26096,252.80702 H 373.62938 V 330 h 17.59064 v -30.97076 h 24.98246 v -15.4386 h -24.98246 v -15.34503 h 27.04094 z"/>
		<path d="m 500.3633,314.09357 c -17.68421,0 -25.45029,-12.35088 -25.45029,-22.73685 0,-10.29239 7.76608,-22.64327 25.45029,-22.64327 8.98246,0 15.1579,4.77193 15.1579,4.77193 l 7.48538,-14.97076 c 0,0 -8.60819,-7.11111 -25.35673,-7.11111 -21.89474,0 -41.82456,17.96491 -41.82456,40.14035 0,22.08187 20.02339,39.85965 41.82456,39.85965 16.74854,0 25.35673,-7.11111 25.35673,-7.11111 l -7.48538,-14.97076 c 0,0 -6.17544,4.77193 -15.1579,4.77193 z"/>
		<path d="m 531.36623,291.35672 c 0,22.54971 16.09356,40.04679 38.92397,40.04679 22.17544,0 38.83041,-17.49708 38.83041,-40.04679 0,-22.5497 -17.4035,-39.95321 -38.83041,-39.95321 -21.23976,0 -38.92397,17.40351 -38.92397,39.95321 z m 18.99415,0 c 0,-11.50877 6.36257,-23.01754 19.92982,-23.01754 13.66082,0 19.83626,11.50877 19.83626,23.01754 0,11.50878 -5.80117,23.01755 -19.83626,23.01755 -14.40935,0 -19.92982,-11.50877 -19.92982,-23.01755 z"/>
		<path d="m 685.69516,330 h 17.59064 l -6.92397,-77.19298 h -18.71345 l -17.12281,44.53801 -17.12281,-44.53801 H 624.68931 L 617.76533,330 h 17.59065 l 3.64912,-45.75439 h 0.46784 l 15.81286,45.28655 h 10.47953 l 15.81287,-45.28655 h 0.46784 z"/>
		<path d="m 779.14548,330 h 17.59064 l -6.92398,-77.19298 h -18.71345 l -17.1228,44.53801 -17.12281,-44.53801 H 718.13963 L 711.21565,330 h 17.59064 l 3.64913,-45.75439 h 0.46783 l 15.81287,45.28655 h 10.47953 l 15.81287,-45.28655 h 0.46783 z"/>
		<path d="m 868.10457,252.80702 h -17.59065 v 44.63158 c 0,12.91228 -3.92982,16.65497 -12.53801,16.65497 -8.60819,0 -12.53801,-3.74269 -12.53801,-16.65497 v -44.63158 h -17.59065 v 49.77777 c 0,19.08772 10.47954,28.81872 30.12866,28.81872 19.64912,0 30.12866,-9.731 30.12866,-28.81872 z"/>
		<path d="m 901.00077,282.09357 h 0.18713 L 931.87796,330 h 17.59065 v -77.19298 h -17.59065 v 47.90643 h -0.18713 L 901.00077,252.80702 H 883.41012 V 330 h 17.59065 z"/>
		<path d="M 983.30338,252.80702 H 965.71274 V 330 h 17.59064 z"/>
		<path d="M 990.15278,268.24561 H 1008.492 V 330 h 17.5906 v -61.75439 h 18.3392 v -15.43859 h -54.26902 z"/>
		<path d="m 1047.3355,252.80702 28.4445,42.5731 V 330 h 17.5906 v -34.61988 l 28.4444,-42.5731 h -21.1462 l -16.0935,24.70175 -16.0936,-24.70175 z"/>
	</g>
	<g aria-label="VANCOUVER">
		<path d="m 469.37994,490 h 10.38596 l 24.2807,-57.89474 h -14.87719 l -14.59649,38.03509 -14.59649,-38.03509 h -14.8772 z"/>
		<path d="M 534.19792,432.10526 H 521.98739 L 498.61897,490 h 14.17544 l 4.2807,-11.57895 H 539.1102 L 543.3909,490 h 14.17544 z m 0.42105,34.73685 H 521.56634 L 528.02248,450 h 0.14035 z"/>
		<path d="m 577.94902,454.07018 h 0.14035 L 601.10691,490 h 13.19298 v -57.89474 h -13.19298 v 35.92983 h -0.14035 L 577.94902,432.10526 H 564.75603 V 490 h 13.19299 z"/>
		<path d="m 656.34704,478.07018 c -13.26316,0 -19.08772,-9.26316 -19.08772,-17.05264 0,-7.71929 5.82456,-16.98245 19.08772,-16.98245 6.73684,0 11.36842,3.57895 11.36842,3.57895 l 5.61404,-11.22807 c 0,0 -6.45614,-5.33334 -19.01755,-5.33334 -16.42105,0 -31.36842,13.47369 -31.36842,30.10527 0,16.5614 15.01755,29.89473 31.36842,29.89473 12.56141,0 19.01755,-5.33333 19.01755,-5.33333 l -5.61404,-11.22807 c 0,0 -4.63158,3.57895 -11.36842,3.57895 z"/>
		<path d="m 680.84923,461.01754 c 0,16.91228 12.07018,30.03509 29.19299,30.03509 16.63157,0 29.1228,-13.12281 29.1228,-30.03509 0,-16.91228 -13.05263,-29.96491 -29.1228,-29.96491 -15.92983,0 -29.19299,13.05263 -29.19299,29.96491 z m 14.24562,0 c 0,-8.63157 4.77193,-17.26315 14.94737,-17.26315 10.24561,0 14.87719,8.63158 14.87719,17.26315 0,8.63158 -4.35088,17.26316 -14.87719,17.26316 -10.80702,0 -14.94737,-8.63158 -14.94737,-17.26316 z"/>
		<path d="m 794.47751,432.10526 h -13.19298 v 33.47369 c 0,9.68421 -2.94737,12.49123 -9.40351,12.49123 -6.45614,0 -9.40351,-2.80702 -9.40351,-12.49123 v -33.47369 h -13.19298 v 37.33334 c 0,14.31579 7.85965,21.61403 22.59649,21.61403 14.73684,0 22.59649,-7.29824 22.59649,-21.61403 z"/>
		<path d="m 819.28124,490 h 10.38597 l 24.2807,-57.89474 h -14.87719 l -14.5965,38.03509 -14.59649,-38.03509 h -14.87719 z"/>
		<path d="M 894.26043,432.10526 H 861.13762 V 490 h 33.12281 V 478.42105 H 874.3306 v -11.64912 h 19.08772 V 455.19298 H 874.3306 v -11.50877 h 19.92983 z"/>
		<path d="M 906.84486,432.10526 V 490 h 13.19299 V 467.12281 L 937.72206,490 h 16.77193 l -19.92983,-23.92982 c 7.08772,-2.24562 11.85965,-8.07018 11.85965,-16.77193 0,-11.36842 -8.14035,-17.19299 -18.87719,-17.19299 z m 13.19299,25.68421 v -15.15789 h 1.54386 c 4.98245,0 10.94736,0.35088 10.94736,7.57895 0,7.22807 -5.96491,7.57894 -10.94736,7.57894 z"/>
	</g>
	<g aria-label="PUBLIC LIBRARY">
		<path d="M 378.81031,512.10526 V 570 h 13.19298 v -21.47368 h 7.92983 c 11.29824,0 19.78947,-6.66667 19.78947,-18.5965 0,-11.99999 -8.49123,-17.82456 -19.78947,-17.82456 z M 392.00329,538 v -15.36842 h 3.7193 c 5.19298,0 10.10526,1.75439 10.10526,7.7193 0,5.89473 -4.91228,7.64912 -10.10526,7.64912 z"/>
		<path d="m 475.03948,512.10526 h -13.19299 v 33.47369 c 0,9.68421 -2.94737,12.49123 -9.40351,12.49123 -6.45614,0 -9.4035,-2.80702 -9.4035,-12.49123 v -33.47369 h -13.19299 v 37.33334 c 0,14.31579 7.85965,21.61403 22.59649,21.61403 14.73685,0 22.5965,-7.29824 22.5965,-21.61403 z"/>
		<path d="M 487.76864,512.10526 V 570 h 21.96491 c 12,0 18.94737,-6.59649 18.94737,-16.14035 0,-9.33333 -5.12281,-13.33333 -12.35088,-14.59649 4.91228,-2.52632 7.22807,-7.08772 7.22807,-12.42105 0,-11.01755 -7.85965,-14.73685 -17.82456,-14.73685 z m 13.19298,22.66667 V 522.2807 h 1.05263 c 5.75439,0 8.77193,1.75439 8.77193,5.89474 0,4.8421 -3.08772,6.59649 -8.77193,6.59649 z m 0,25.05263 v -13.68421 h 4.14035 c 6.24562,0 9.68421,1.89474 9.68421,7.22807 0,4.5614 -3.43859,6.45614 -9.68421,6.45614 z"/>
		<path d="M 552.69957,512.10526 H 539.50658 V 570 h 33.12281 v -11.57895 h -19.92982 z"/>
		<path d="M 597.3103,512.10526 H 584.11732 V 570 h 13.19298 z"/>
		<path d="m 639.38706,558.07018 c -13.26316,0 -19.08772,-9.26316 -19.08772,-17.05264 0,-7.71929 5.82456,-16.98245 19.08772,-16.98245 6.73684,0 11.36842,3.57895 11.36842,3.57895 l 5.61403,-11.22807 c 0,0 -6.45614,-5.33334 -19.01754,-5.33334 -16.42105,0 -31.36842,13.47369 -31.36842,30.10527 0,16.5614 15.01754,29.89473 31.36842,29.89473 12.5614,0 19.01754,-5.33333 19.01754,-5.33333 l -5.61403,-11.22807 c 0,0 -4.63158,3.57895 -11.36842,3.57895 z"/>
		<path d="M 703.86734,512.10526 H 690.67435 V 570 h 33.12281 v -11.57895 h -19.92982 z"/>
		<path d="M 748.47805,512.10526 H 735.28507 V 570 h 13.19298 z"/>
		<path d="M 761.94077,512.10526 V 570 h 21.96491 c 12,0 18.94737,-6.59649 18.94737,-16.14035 0,-9.33333 -5.1228,-13.33333 -12.35087,-14.59649 4.91228,-2.52632 7.22807,-7.08772 7.22807,-12.42105 0,-11.01755 -7.85965,-14.73685 -17.82457,-14.73685 z m 13.19298,22.66667 V 522.2807 h 1.05264 c 5.75438,0 8.77193,1.75439 8.77193,5.89474 0,4.8421 -3.08772,6.59649 -8.77193,6.59649 z m 0,25.05263 v -13.68421 h 4.14036 c 6.24561,0 9.68421,1.89474 9.68421,7.22807 0,4.5614 -3.4386,6.45614 -9.68421,6.45614 z"/>
		<path d="M 813.67872,512.10526 V 570 H 826.8717 V 547.12281 L 844.55591,570 h 16.77193 l -19.92982,-23.92982 c 7.08772,-2.24562 11.85964,-8.07018 11.85964,-16.77193 0,-11.36842 -8.14035,-17.19299 -18.87719,-17.19299 z m 13.19298,25.68421 v -15.15789 h 1.54386 c 4.98246,0 10.94737,0.35088 10.94737,7.57895 0,7.22807 -5.96491,7.57894 -10.94737,7.57894 z"/>
		<path d="M 898.38377,512.10526 H 886.17324 L 862.80482,570 h 14.17544 l 4.2807,-11.57895 h 22.03509 L 907.57675,570 h 14.17544 z m 0.42105,34.73685 H 885.75219 L 892.20833,530 h 0.14035 z"/>
		<path d="M 928.9419,512.10526 V 570 h 13.19298 V 547.12281 L 959.81909,570 h 16.77193 L 956.6612,546.07018 c 7.08772,-2.24562 11.85965,-8.07018 11.85965,-16.77193 0,-11.36842 -8.14035,-17.19299 -18.87719,-17.19299 z m 13.19298,25.68421 v -15.15789 h 1.54386 c 4.98246,0 10.94737,0.35088 10.94737,7.57895 0,7.22807 -5.96491,7.57894 -10.94737,7.57894 z"/>
		<path d="m 971.62282,512.10526 21.33333,31.92983 V 570 h 13.19295 v -25.96491 l 21.3334,-31.92983 h -15.8597 l -12.07016,18.52632 -12.07017,-18.52632 z"/>
	</g>
</svg>
